Coordinates
version=1
nRows=5
nColumns=60
inDegrees=yes

Units are S.I. units (second, meters, Newtons, ...)
If the header above contains a line with 'inDegrees', this indicates whether rotational values are in degrees (yes) or radians (no).

endheader
time	pelvis_tilt	pelvis_list	pelvis_rotation	pelvis_tx	pelvis_ty	pelvis_tz	hip_flexion_r	hip_adduction_r	hip_rotation_r	knee_angle_r_beta	knee_angle_r	ankle_angle_r	subtalar_angle_r	mtp_angle_r	hip_flexion_l	hip_adduction_l	hip_rotation_l	knee_angle_l_beta	knee_angle_l	ankle_angle_l	subtalar_angle_l	mtp_angle_l	L5_S1_Flex_Ext	L5_S1_Lat_Bending	L5_S1_axial_rotation	L4_L5_Flex_Ext	L4_L5_Lat_Bending	L4_L5_axial_rotation	L3_L4_Flex_Ext	L3_L4_Lat_Bending	L3_L4_axial_rotation	L2_L3_Flex_Ext	L2_L3_Lat_Bending	L2_L3_axial_rotation	L1_L2_Flex_Ext	L1_L2_Lat_Bending	L1_L2_axial_rotation	L1_T12_Flex_Ext	L1_T12_Lat_Bending	L1_T12_axial_rotation	Abs_r3	Abs_r2	Abs_r1	Abs_t1	Abs_t2	arm_flex_r	arm_add_r	arm_rot_r	elbow_flex_r	pro_sup_r	wrist_flex_r	wrist_dev_r	arm_flex_l	arm_add_l	arm_rot_l	elbow_flex_l	pro_sup_l	wrist_flex_l	wrist_dev_l
      8.25000000	      0.48714940	     -8.74739129	     93.77818785	      0.39461991	      0.85647841	      0.43042746	     43.60672583	     -7.00164244	     -0.90014890	      0.71347599	    -40.87916294	      8.24507380	      0.00000000	      0.00000000	     44.39854808	     -4.71655942	     -0.52190646	      0.68928813	    -39.49330065	      8.17069661	      0.00000000	      0.00000000	    -11.12699669	      0.24594598	     -0.24201598	    -20.66394556	      0.32710815	     -0.25714198	    -18.28054287	      0.59799306	     -0.25714198	    -12.71704452	      0.59799306	     -0.21176398	    -10.33252913	      0.50153304	     -0.19663798	     -6.35796591	      0.38097032	     -0.18151199	    -79.47902468	      2.78219012	     -1.34602028	      0.00000000	      0.00000000	     75.10513957	    -20.92311154	     18.79052833	     53.20676241	     72.96639946	      8.42614890	      1.36870001	     79.84820775	    -21.72194076	     28.38805490	     47.98145117	     63.73682695	     11.35194291	      3.11950457
      8.26000000	      0.53546783	     -9.10229494	     93.76985281	      0.39478005	      0.85445801	      0.43122109	     44.29220603	     -7.01610784	     -0.98554384	      0.72048585	    -41.28079864	      8.38381385	      0.00000000	      0.00000000	     45.12335206	     -4.78620132	     -0.57587670	      0.69757069	    -39.96785639	      8.35547627	      0.00000000	      0.00000000	    -11.11626818	      0.23875360	     -0.26341905	    -20.64402163	      0.31754228	     -0.27988274	    -18.26291699	      0.58050550	     -0.27988274	    -12.70478290	      0.58050550	     -0.23049167	    -10.32256663	      0.48686634	     -0.21402798	     -6.35183564	      0.36982932	     -0.19756429	    -79.40239195	      2.70082844	     -1.46505772	      0.00000000	      0.00000000	     75.96202097	    -20.59993319	     19.10527768	     52.48230960	     72.91091901	      8.50037876	      1.40257012	     80.63498672	    -21.93821512	     28.98434747	     47.69989035	     63.83822730	     11.90185318	      3.40789064
      8.27000000	      0.57477517	     -9.22464515	     93.77844392	      0.39492756	      0.85294921	      0.43176531	     44.70405594	     -7.01843859	     -1.02481079	      0.72788016	    -41.70446105	      8.44463159	      0.00000000	      0.00000000	     45.57188231	     -4.84546599	     -0.57935840	      0.70562589	    -40.42938532	      8.41997723	      0.00000000	      0.00000000	    -11.15134398	      0.23572265	     -0.26740336	    -20.70916091	      0.31351113	     -0.28411607	    -18.32054302	      0.57313605	     -0.28411607	    -12.74487103	      0.57313605	     -0.23397794	    -10.35513802	      0.48068563	     -0.21726523	     -6.37187795	      0.36513439	     -0.20055252	    -79.65293492	      2.66654178	     -1.48721725	      0.00000000	      0.00000000	     76.66150188	    -20.47276974	     19.10036411	     52.30901596	     72.88584436	      8.51839864	      1.39292481	     81.36096929	    -21.97312913	     29.01553031	     47.65947366	     63.87731357	     12.08322099	      3.48471519
      8.28000000	      0.63108538	     -9.48233265	     93.80513779	      0.39506251	      0.85128602	      0.43232858	     45.25652263	     -7.04124958	     -1.16966781	      0.73501320	    -42.11315449	      8.59682409	      0.00000000	      0.00000000	     46.17618985	     -4.93315512	     -0.70083245	      0.71392766	    -40.90504153	      8.57862101	      0.00000000	      0.00000000	    -11.15229512	      0.23440845	     -0.27830662	    -20.71092726	      0.31176323	     -0.29570078	    -18.32210565	      0.56994069	     -0.29570078	    -12.74595809	      0.56994069	     -0.24351829	    -10.35602125	      0.47800570	     -0.22612413	     -6.37242143	      0.36309868	     -0.20872997	    -79.65972880	      2.65167521	     -1.54785793	      0.00000000	      0.00000000	     77.41306166	    -20.22870407	     19.31123868	     51.69211948	     72.83259290	      8.56717195	      1.40520823	     82.06568860	    -22.06277442	     29.31100304	     47.37550295	     63.97357392	     12.46288510	      3.68533535
      8.29000000	      0.67056124	     -9.70596134	     93.82659944	      0.39517878	      0.84990465	      0.43283697	     45.69714785	     -7.05394214	     -1.21952813	      0.73992498	    -42.39457846	      8.69977451	      0.00000000	      0.00000000	     46.65137677	     -4.97310565	     -0.70396781	      0.71945431	    -41.22169577	      8.65253267	      0.00000000	      0.00000000	    -11.15789357	      0.23035007	     -0.29514170	    -20.72132414	      0.30636560	     -0.31358806	    -18.33130334	      0.56007316	     -0.31358806	    -12.75235656	      0.56007316	     -0.25824899	    -10.36121997	      0.46972987	     -0.23980263	     -6.37562038	      0.35681226	     -0.22135628	    -79.69971797	      2.60576608	     -1.64148962	      0.00000000	      0.00000000	     78.23281668	    -19.95472572	     19.61659100	     50.93008523	     72.71775160	      8.66507945	      1.35153510	     82.78448960	    -22.16038146	     29.55783512	     47.01643467	     64.05458163	     12.99066626	      3.93401176
